<?xml version="1.0" standalone="no"?>
<!DOCTYPE svg PUBLIC "-//W3C//DTD SVG 20010904//EN"
 "http://www.w3.org/TR/2001/REC-SVG-20010904/DTD/svg10.dtd">
<svg version="1.0" xmlns="http://www.w3.org/2000/svg"
 width="709.000000pt" height="709.000000pt" viewBox="0 0 709.000000 709.000000"
 preserveAspectRatio="xMidYMid meet">
<metadata>
Created by potrace 1.14, written by Peter Selinger 2001-2017
</metadata>
<g transform="translate(0.000000,709.000000) scale(0.100000,-0.100000)"
fill="#000000" stroke="none">
<path d="M3378 7035 c-2 -1 -50 -5 -108 -9 -58 -4 -116 -9 -130 -11 -177 -24
-329 -51 -425 -77 -22 -5 -49 -12 -60 -14 -78 -15 -352 -108 -442 -149 -17 -8
-34 -15 -37 -15 -9 0 -146 -64 -221 -103 -863 -445 -1506 -1225 -1765 -2140
-41 -142 -94 -391 -105 -487 -3 -30 -8 -66 -10 -80 -26 -170 -25 -675 1 -814
2 -10 6 -44 10 -75 9 -83 50 -290 79 -397 165 -620 484 -1168 937 -1609 67
-66 150 -143 183 -170 33 -28 62 -52 65 -55 3 -3 41 -32 85 -66 250 -190 547
-356 845 -472 121 -47 372 -127 435 -138 17 -3 50 -10 75 -15 25 -6 56 -13 70
-15 14 -2 45 -8 70 -14 25 -5 67 -12 93 -15 27 -4 58 -8 68 -10 146 -28 754
-27 904 1 11 2 43 6 70 10 39 4 244 45 347 69 161 37 465 150 658 243 699 340
1279 921 1614 1616 50 105 165 383 171 416 1 3 12 39 24 80 27 88 77 280 85
330 3 19 8 46 11 60 12 60 15 78 20 120 4 25 8 56 10 70 3 23 8 63 21 200 6
69 6 424 -1 505 -27 327 -93 639 -197 925 -301 829 -906 1518 -1688 1922 -333
172 -769 310 -1115 352 -22 3 -56 7 -75 10 -94 13 -182 18 -367 21 -111 2
-203 2 -205 0z m98 -1858 c33 -3 100 -8 150 -12 49 -3 100 -8 114 -10 14 -2
58 -7 99 -10 41 -4 84 -9 95 -11 11 -2 56 -8 100 -14 143 -20 151 -21 176 -26
14 -2 36 -6 50 -9 23 -5 93 -18 165 -31 246 -45 658 -163 900 -257 323 -126
598 -269 681 -353 189 -192 64 -517 -208 -541 -82 -7 -131 8 -248 75 -178 102
-415 205 -650 282 -117 38 -288 88 -329 95 -19 3 -37 8 -41 10 -8 5 -164 40
-220 50 -19 3 -53 10 -75 15 -22 5 -60 12 -85 15 -24 4 -47 8 -50 10 -3 1 -30
6 -61 9 -31 4 -65 8 -75 10 -11 2 -44 7 -74 11 -30 3 -66 8 -80 10 -22 3 -90
10 -205 21 -280 26 -913 25 -1142 -1 -21 -2 -62 -7 -90 -10 -125 -12 -164 -18
-273 -35 -63 -10 -128 -21 -145 -24 -74 -13 -306 -68 -385 -91 -69 -21 -127
-24 -186 -10 -245 57 -332 361 -155 541 36 37 101 76 146 87 11 3 45 13 75 22
30 9 66 18 80 21 14 3 60 14 102 25 78 19 204 45 268 55 19 2 44 7 56 9 23 5
149 24 204 31 163 20 276 30 430 40 52 3 96 7 98 8 4 5 722 -2 788 -7z m-146
-1201 c19 -2 73 -7 120 -11 47 -3 96 -8 110 -10 14 -2 50 -7 80 -10 30 -3 62
-8 70 -10 8 -2 40 -7 70 -10 30 -3 62 -8 70 -10 8 -2 31 -7 50 -10 483 -80
1030 -270 1445 -500 177 -99 221 -139 250 -232 61 -192 -112 -382 -310 -340
-22 4 -103 43 -180 86 -234 130 -408 206 -665 291 -151 50 -410 119 -525 139
-33 6 -71 13 -85 16 -24 5 -175 29 -250 39 -19 3 -62 8 -95 11 -33 4 -73 8
-90 10 -52 8 -335 19 -455 19 -122 0 -378 -11 -420 -18 -14 -3 -52 -7 -85 -11
-123 -12 -152 -16 -230 -30 -44 -8 -96 -17 -115 -20 -55 -9 -195 -43 -314 -77
-81 -22 -122 -29 -161 -25 -93 9 -178 68 -221 155 -29 58 -26 184 6 237 62
100 96 120 315 179 189 50 455 99 660 121 33 4 71 8 84 10 14 3 81 7 150 11
69 4 127 8 129 9 5 4 553 -4 592 -9z m50 -1140 c14 -3 59 -7 100 -11 41 -3 84
-7 95 -9 11 -2 45 -7 75 -11 30 -4 62 -9 70 -10 264 -49 404 -83 606 -150 89
-29 177 -60 195 -68 19 -8 54 -23 79 -34 160 -65 470 -233 511 -276 69 -73 79
-189 23 -269 -35 -51 -119 -98 -175 -98 -42 0 -105 24 -170 66 -63 39 -300
156 -394 194 -151 61 -408 142 -523 165 -9 2 -28 6 -42 9 -14 3 -37 8 -53 10
-15 3 -53 10 -85 15 -235 42 -404 55 -702 55 -196 -1 -339 -6 -445 -19 -16 -2
-61 -7 -100 -11 -38 -4 -72 -8 -75 -9 -3 -1 -36 -5 -75 -10 -38 -5 -72 -9 -75
-10 -7 -2 -91 -16 -122 -21 -48 -7 -220 -42 -284 -57 -164 -39 -285 41 -298
196 -4 40 26 122 56 155 22 24 89 59 126 67 9 2 85 17 167 34 200 41 421 75
555 87 30 3 66 7 79 9 12 2 78 7 145 11 66 4 123 8 125 10 6 5 582 -4 611 -10z"/>
</g>
</svg>
